<svg xmlns:mydata="http://www.w3.org/2000/svg" mydata:contrastcolor="ffffff" mydata:template="BlackAndHighlightColorHex1" mydata:presentation="2.5" mydata:layouttype="undefined" mydata:specialfontid="undefined" mydata:id1="129" mydata:id2="128" mydata:companyname="PlanMatr" mydata:companytagline="" version="1.1" xmlns="http://www.w3.org/2000/svg" xmlns:xlink="http://www.w3.org/1999/xlink" viewBox="0 30 550 410"><g fill="#a2aaad" fill-rule="none" stroke="none" stroke-width="1" stroke-linecap="butt" stroke-linejoin="miter" stroke-miterlimit="10" stroke-dasharray="" stroke-dashoffset="0" font-family="none" font-weight="none" font-size="none" text-anchor="none" style="mix-blend-mode: normal"><g data-paper-data="{&quot;isGlobalGroup&quot;:true,&quot;bounds&quot;:{&quot;x&quot;:85.67458495848268,&quot;y&quot;:115,&quot;width&quot;:378.65083008303463,&quot;height&quot;:240}}"><g data-paper-data="{&quot;isPrimaryText&quot;:true}" fill-rule="nonzero"><path d="M94.24617,322.60967h12.28462c2.13302,0 3.96321,-0.76367 5.49056,-2.29102c1.50102,-1.50102 2.25152,-3.31803 2.25152,-5.45106c0,-2.15936 -0.75051,-4.00271 -2.25152,-5.53006c-1.52735,-1.52735 -3.35753,-2.29102 -5.49056,-2.29102h-12.28462zM94.24617,355h-8.57159v-56.52507h20.85621c4.50305,0 8.34775,1.60635 11.53412,4.81905c3.2127,3.18637 4.81905,7.04424 4.81905,11.57362c0,4.50305 -1.60635,8.34775 -4.81905,11.53412c-3.18637,3.18637 -7.03107,4.77955 -11.53412,4.77955h-12.28462z" data-paper-data="{&quot;glyphName&quot;:&quot;P&quot;,&quot;glyphIndex&quot;:0,&quot;firstGlyphOfWord&quot;:true,&quot;word&quot;:1}"></path><path d="M129.79653,298.47493v56.52507h28.83529v-8.57159h-20.2637v-47.95349z" data-paper-data="{&quot;glyphName&quot;:&quot;L&quot;,&quot;glyphIndex&quot;:1,&quot;word&quot;:1}"></path><path d="M196.59171,298.47493l-35.74786,56.52507h10.1516l8.33458,-13.19313h19.19719v13.19313h8.61109v-56.52507zM198.52723,311.47056v21.76472h-13.78564z" data-paper-data="{&quot;glyphName&quot;:&quot;A&quot;,&quot;glyphIndex&quot;:2,&quot;word&quot;:1}"></path><path d="M249.32474,298.47493v40.40891l-24.13474,-40.40891h-8.96659v56.52507h8.57159v-40.40891l24.17424,40.40891h8.96659v-56.52507z" data-paper-data="{&quot;glyphName&quot;:&quot;N&quot;,&quot;glyphIndex&quot;:3,&quot;word&quot;:1}"></path><path d="M316.39642,298.47493l-20.1452,46.13647l-19.9082,-46.13647h-8.96659v56.52507h8.57159v-35.66886l15.44466,35.66886h9.6776l15.72116,-35.90586v35.90586h8.57159v-56.52507z" data-paper-data="{&quot;glyphName&quot;:&quot;M&quot;,&quot;glyphIndex&quot;:4,&quot;word&quot;:1}"></path><path d="M366.00892,298.47493l-35.74786,56.52507h10.1516l8.33458,-13.19313h19.19719v13.19313h8.61109v-56.52507zM367.94444,311.47056v21.76472h-13.78564z" data-paper-data="{&quot;glyphName&quot;:&quot;A&quot;,&quot;glyphIndex&quot;:5,&quot;word&quot;:1}"></path><path d="M384.2186,298.47493v8.57159h11.96862v47.95349h8.61109v-47.95349h11.96862v-8.57159z" data-paper-data="{&quot;glyphName&quot;:&quot;T&quot;,&quot;glyphIndex&quot;:6,&quot;word&quot;:1}"></path><path d="M432.60659,322.60967v-15.56316h12.28462c2.13302,0 3.96321,0.76367 5.49056,2.29102c1.50102,1.52735 2.25152,3.3707 2.25152,5.53006c0,2.13302 -0.75051,3.95004 -2.25152,5.45106c-1.52735,1.52735 -3.35753,2.29102 -5.49056,2.29102zM451.29028,329.87775c2.94936,-1.26401 5.33255,-3.23903 7.14957,-5.92506c1.86969,-2.73869 2.80453,-5.76706 2.80453,-9.08509c0,-4.52938 -1.60635,-8.38725 -4.81905,-11.57362c-3.18637,-3.2127 -7.03107,-4.81905 -11.53412,-4.81905h-20.85621v56.52507h8.57159v-23.81874h9.6776l12.36363,23.81874h9.6776z" data-paper-data="{&quot;glyphName&quot;:&quot;R&quot;,&quot;glyphIndex&quot;:7,&quot;lastGlyphOfWord&quot;:true,&quot;word&quot;:1}"></path></g><g data-paper-data="{&quot;isIcon&quot;:&quot;true&quot;,&quot;iconType&quot;:&quot;icon&quot;,&quot;rawIconId&quot;:&quot;4JJtJ7aSbFzmCJRGZUqAuJN7QAdU4uvJtmUzl1g_dK&quot;,&quot;source&quot;:&quot;ai&quot;,&quot;selectedEffects&quot;:{&quot;container&quot;:&quot;&quot;,&quot;transformation&quot;:&quot;&quot;,&quot;pattern&quot;:&quot;&quot;},&quot;isDetailed&quot;:false,&quot;iconStyle&quot;:&quot;standalone&quot;,&quot;bounds&quot;:{&quot;x&quot;:205.61162178262924,&quot;y&quot;:115,&quot;width&quot;:138.77675643474151,&quot;height&quot;:152.17058041835054},&quot;fillRule&quot;:&quot;evenodd&quot;,&quot;suitableAsStandaloneIcon&quot;:true}" fill-rule="evenodd"><path d="M205.61448,139.05065v-24.05065h9.1527l2.94438,2.9248l2.94438,2.92482l3.07929,-2.92482l3.0789,-2.9248l32.10035,0.00244c26.0497,0.00204 32.84418,0.11455 36.0463,0.59719c24.99907,3.76819 43.7752,21.69778 48.6934,46.49716c0.97692,4.92384 0.9793,14.84912 0.00505,20.09098c-2.09175,11.25884 -7.48103,21.6106 -15.32435,29.43401c-10.70871,10.68166 -22.70998,16.35447 -37.87294,17.90144c-2.32179,0.23717 -11.55783,0.43066 -20.5243,0.43066c-13.72388,0 -16.50843,-0.09778 -17.60483,-0.6179c-2.44543,-1.1606 -3.38312,-4.20312 -2.0751,-6.73295c1.23044,-2.37885 1.08214,-2.36251 22.84818,-2.52865l19.94713,-0.15187l4.28009,-1.14722c18.59512,-4.98359 31.54389,-17.61018 36.16131,-35.26196c1.51725,-5.80032 1.75561,-14.92074 0.543,-20.79268c-1.97911,-9.58556 -6.10614,-17.07432 -13.32473,-24.17747c-6.70472,-6.59805 -14.51921,-10.77959 -24.39871,-13.05627c-3.502,-0.80713 -5.06532,-0.85278 -34.38669,-1.004l-30.71759,-0.15859l-1.58775,1.10023c-0.87275,0.60533 -1.58736,1.2229 -1.58736,1.37251c0,0.14961 0.59721,0.85114 1.32689,1.55841l1.32724,1.28611l31.58957,0.12718l31.58996,0.12676l3.87262,1.07292c7.64895,2.11972 14.32603,5.99677 19.80268,11.49946c3.88303,3.90154 6.1427,7.1322 8.56465,12.24477c4.1416,8.74387 4.90275,18.9595 2.16991,29.13532c-3.76979,14.03685 -16.06529,25.76765 -31.1489,29.71933c-5.33994,1.39896 -10.33304,1.71162 -27.33572,1.71162c-17.77275,0 -18.31308,-0.06836 -19.56046,-2.4805c-1.16238,-2.2469 -0.4045,-5.46031 1.55053,-6.57722c0.69101,-0.39499 5.67043,-0.5754 20.47973,-0.74272c22.28764,-0.25174 22.71414,-0.30732 29.75767,-3.85241c8.89752,-4.47833 15.07559,-12.16978 17.37063,-21.62397c1.14841,-4.73185 1.22628,-11.38961 0.1807,-15.47414c-2.68795,-10.50155 -10.37167,-19.22907 -20.24938,-23.00088c-6.3665,-2.43116 -7.12111,-2.4764 -41.48223,-2.47723l-31.23281,-0.00122l-2.86039,-2.82289l-2.86042,-2.82292l-3.05034,2.80618l-3.05037,2.80618l-4.58592,0.01754zM247.19348,146.45859c5.39938,-1.75154 6.09336,-1.81677 22.21631,-2.09273c8.74387,-0.14961 17.1822,-0.19037 18.75146,-0.09091c20.8123,1.32025 33.04004,21.78096 24.16183,40.43107c-1.34665,2.83002 -2.29237,4.10742 -5.16013,6.97191c-2.91175,2.90789 -4.1731,3.83191 -7.38414,5.41038c-5.24989,2.58036 -8.02165,3.09275 -16.78305,3.10107l-7.20403,0.00714l-0.13345,-9.89555l-0.13374,-9.89525l-1.34398,-2.72837c-1.70776,-3.46693 -4.26345,-6.02203 -7.73068,-7.7289c-2.5236,-1.24262 -3.02291,-1.34249 -6.6111,-1.32317c-3.30614,0.01783 -4.22838,0.181 -6.22621,1.09937c-3.07016,1.41115 -6.53115,4.72175 -7.94467,7.59842l-1.12404,2.28761l-0.40747,87.5599l-5.29952,-0.04369c-2.91442,-0.02348 -11.58211,-0.05082 -19.26079,-0.06063l-13.96161,-0.01724l0.00081,-54.11388c0.0004,-51.47407 -0.16794,-56.03265 1.72716,-57.1781c0.34038,-0.20596 0.74761,-0.30166 1.23393,-0.53943c1.36763,-0.66813 1.71941,-0.69041 3.22483,-0.20389c0.93716,0.30286 2.06874,1.05866 2.54122,1.69706c0.84993,1.14871 0.85195,1.2456 1.05536,50.50844l0.20382,49.35765l4.66013,-4.259l0.12554,-37.9841l0.12596,-37.9841l0.92738,-3.05738c3.94024,-12.99156 13.36893,-22.81548 25.75285,-26.83374zM230.24399,178.15673c2.11972,-11.88149 11.96917,-21.57969 24.15203,-23.78141c4.62931,-0.83634 32.63376,-0.87557 36.5248,-0.05082c9.61023,2.03647 16.24896,11.26062 14.68327,20.40067c-0.60868,3.55342 -2.50487,7.47895 -4.79635,9.92854c-3.26484,3.49012 -9.32907,6.01668 -13.66563,5.69243l-1.83437,-0.13672l-0.2455,-5.70699c-0.28145,-6.54839 -0.86904,-8.85799 -3.30703,-13.00613c-4.50241,-7.65965 -13.01297,-12.57666 -21.74583,-12.56299c-12.72765,0.01961 -23.18848,9.20632 -25.03679,21.98835c-0.23685,1.64059 -0.40278,17.56351 -0.40765,39.14707c-0.00449,20.00984 -0.14554,36.37798 -0.31388,36.37352c-0.16837,-0.00387 -1.26899,-0.91867 -2.44585,-2.03201l-2.14007,-2.02458l0.01427,-35.57225c0.01099,-28.01663 0.13125,-36.2273 0.56458,-38.65668z" data-paper-data="{&quot;isPathIcon&quot;:true}"></path></g></g></g></svg>